<?xml version="1.0" encoding="utf-8" ?>
<svg baseProfile="tiny" height="520" version="1.2" width="570" xmlns="http://www.w3.org/2000/svg" xmlns:ev="http://www.w3.org/2001/xml-events" xmlns:xlink="http://www.w3.org/1999/xlink"><defs /><rect fill="black" height="520" width="570" x="0" y="0" /><text fill="white" font-family="Arial" font-size="24" x="35.0" y="35.0">E</text><text fill="white" font-family="Arial" font-size="24" x="85.0" y="35.0">S</text><text fill="white" font-family="Arial" font-size="24" x="135.0" y="35.0">K</text><text fill="white" font-family="Arial" font-size="24" x="185.0" y="35.0">I</text><text fill="white" font-family="Arial" font-size="24" x="235.0" y="35.0">S</text><text fill="white" font-family="Arial" font-size="24" x="285.0" y="35.0">C</text><text fill="white" font-family="Arial" font-size="24" x="335.0" y="35.0">H</text><text fill="white" font-family="Arial" font-size="24" x="385.0" y="35.0">A</text><text fill="white" font-family="Arial" font-size="24" x="435.0" y="35.0">F</text><text fill="white" font-family="Arial" font-size="24" x="485.0" y="35.0">Ü</text><text fill="white" font-family="Arial" font-size="24" x="535.0" y="35.0">F</text><text fill="white" font-family="Arial" font-size="24" x="35.0" y="85.0">V</text><text fill="white" font-family="Arial" font-size="24" x="85.0" y="85.0">I</text><text fill="white" font-family="Arial" font-size="24" x="135.0" y="85.0">E</text><text fill="white" font-family="Arial" font-size="24" x="185.0" y="85.0">R</text><text fill="white" font-family="Arial" font-size="24" x="235.0" y="85.0">T</text><text fill="white" font-family="Arial" font-size="24" x="285.0" y="85.0">U</text><text fill="white" font-family="Arial" font-size="24" x="335.0" y="85.0">B</text><text fill="white" font-family="Arial" font-size="24" x="385.0" y="85.0">F</text><text fill="white" font-family="Arial" font-size="24" x="435.0" y="85.0">Z</text><text fill="white" font-family="Arial" font-size="24" x="485.0" y="85.0">Ä</text><text fill="white" font-family="Arial" font-size="24" x="535.0" y="85.0">Ä</text><text fill="white" font-family="Arial" font-size="24" x="35.0" y="135.0">Z</text><text fill="white" font-family="Arial" font-size="24" x="85.0" y="135.0">W</text><text fill="white" font-family="Arial" font-size="24" x="135.0" y="135.0">Ä</text><text fill="white" font-family="Arial" font-size="24" x="185.0" y="135.0">N</text><text fill="white" font-family="Arial" font-size="24" x="235.0" y="135.0">Z</text><text fill="white" font-family="Arial" font-size="24" x="285.0" y="135.0">G</text><text fill="white" font-family="Arial" font-size="24" x="335.0" y="135.0">S</text><text fill="white" font-family="Arial" font-size="24" x="385.0" y="135.0">I</text><text fill="white" font-family="Arial" font-size="24" x="435.0" y="135.0">V</text><text fill="white" font-family="Arial" font-size="24" x="485.0" y="135.0">O</text><text fill="white" font-family="Arial" font-size="24" x="535.0" y="135.0">R</text><text fill="white" font-family="Arial" font-size="24" x="35.0" y="185.0">A</text><text fill="white" font-family="Arial" font-size="24" x="85.0" y="185.0">B</text><text fill="white" font-family="Arial" font-size="24" x="135.0" y="185.0">O</text><text fill="white" font-family="Arial" font-size="24" x="185.0" y="185.0">H</text><text fill="white" font-family="Arial" font-size="24" x="235.0" y="185.0">A</text><text fill="white" font-family="Arial" font-size="24" x="285.0" y="185.0">U</text><text fill="white" font-family="Arial" font-size="24" x="335.0" y="185.0">B</text><text fill="white" font-family="Arial" font-size="24" x="385.0" y="185.0">I</text><text fill="white" font-family="Arial" font-size="24" x="435.0" y="185.0">E</text><text fill="white" font-family="Arial" font-size="24" x="485.0" y="185.0">G</text><text fill="white" font-family="Arial" font-size="24" x="535.0" y="185.0">E</text><text fill="white" font-family="Arial" font-size="24" x="35.0" y="235.0">E</text><text fill="white" font-family="Arial" font-size="24" x="85.0" y="235.0">I</text><text fill="white" font-family="Arial" font-size="24" x="135.0" y="235.0">S</text><text fill="white" font-family="Arial" font-size="24" x="185.0" y="235.0">Z</text><text fill="white" font-family="Arial" font-size="24" x="235.0" y="235.0">W</text><text fill="white" font-family="Arial" font-size="24" x="285.0" y="235.0">Ö</text><text fill="white" font-family="Arial" font-size="24" x="335.0" y="235.0">I</text><text fill="white" font-family="Arial" font-size="24" x="385.0" y="235.0">S</text><text fill="white" font-family="Arial" font-size="24" x="435.0" y="235.0">D</text><text fill="white" font-family="Arial" font-size="24" x="485.0" y="235.0">R</text><text fill="white" font-family="Arial" font-size="24" x="535.0" y="235.0">Ü</text><text fill="white" font-family="Arial" font-size="24" x="35.0" y="285.0">V</text><text fill="white" font-family="Arial" font-size="24" x="85.0" y="285.0">I</text><text fill="white" font-family="Arial" font-size="24" x="135.0" y="285.0">E</text><text fill="white" font-family="Arial" font-size="24" x="185.0" y="285.0">R</text><text fill="white" font-family="Arial" font-size="24" x="235.0" y="285.0">I</text><text fill="white" font-family="Arial" font-size="24" x="285.0" y="285.0">F</text><text fill="white" font-family="Arial" font-size="24" x="335.0" y="285.0">Ü</text><text fill="white" font-family="Arial" font-size="24" x="385.0" y="285.0">F</text><text fill="white" font-family="Arial" font-size="24" x="435.0" y="285.0">I</text><text fill="white" font-family="Arial" font-size="24" x="485.0" y="285.0">Q</text><text fill="white" font-family="Arial" font-size="24" x="535.0" y="285.0">T</text><text fill="white" font-family="Arial" font-size="24" x="35.0" y="335.0">S</text><text fill="white" font-family="Arial" font-size="24" x="85.0" y="335.0">Ä</text><text fill="white" font-family="Arial" font-size="24" x="135.0" y="335.0">C</text><text fill="white" font-family="Arial" font-size="24" x="185.0" y="335.0">H</text><text fill="white" font-family="Arial" font-size="24" x="235.0" y="335.0">S</text><text fill="white" font-family="Arial" font-size="24" x="285.0" y="335.0">I</text><text fill="white" font-family="Arial" font-size="24" x="335.0" y="335.0">S</text><text fill="white" font-family="Arial" font-size="24" x="385.0" y="335.0">I</text><text fill="white" font-family="Arial" font-size="24" x="435.0" y="335.0">B</text><text fill="white" font-family="Arial" font-size="24" x="485.0" y="335.0">N</text><text fill="white" font-family="Arial" font-size="24" x="535.0" y="335.0">I</text><text fill="white" font-family="Arial" font-size="24" x="35.0" y="385.0">A</text><text fill="white" font-family="Arial" font-size="24" x="85.0" y="385.0">C</text><text fill="white" font-family="Arial" font-size="24" x="135.0" y="385.0">H</text><text fill="white" font-family="Arial" font-size="24" x="185.0" y="385.0">T</text><text fill="white" font-family="Arial" font-size="24" x="235.0" y="385.0">I</text><text fill="white" font-family="Arial" font-size="24" x="285.0" y="385.0">N</text><text fill="white" font-family="Arial" font-size="24" x="335.0" y="385.0">Ü</text><text fill="white" font-family="Arial" font-size="24" x="385.0" y="385.0">N</text><text fill="white" font-family="Arial" font-size="24" x="435.0" y="385.0">I</text><text fill="white" font-family="Arial" font-size="24" x="485.0" y="385.0">E</text><text fill="white" font-family="Arial" font-size="24" x="535.0" y="385.0">L</text><text fill="white" font-family="Arial" font-size="24" x="35.0" y="435.0">Z</text><text fill="white" font-family="Arial" font-size="24" x="85.0" y="435.0">Ä</text><text fill="white" font-family="Arial" font-size="24" x="135.0" y="435.0">N</text><text fill="white" font-family="Arial" font-size="24" x="185.0" y="435.0">I</text><text fill="white" font-family="Arial" font-size="24" x="235.0" y="435.0">E</text><text fill="white" font-family="Arial" font-size="24" x="285.0" y="435.0">R</text><text fill="white" font-family="Arial" font-size="24" x="335.0" y="435.0">B</text><text fill="white" font-family="Arial" font-size="24" x="385.0" y="435.0">Ö</text><text fill="white" font-family="Arial" font-size="24" x="435.0" y="435.0">U</text><text fill="white" font-family="Arial" font-size="24" x="485.0" y="435.0">F</text><text fill="white" font-family="Arial" font-size="24" x="535.0" y="435.0">I</text><text fill="white" font-family="Arial" font-size="24" x="35.0" y="485.0">Z</text><text fill="white" font-family="Arial" font-size="24" x="85.0" y="485.0">W</text><text fill="white" font-family="Arial" font-size="24" x="135.0" y="485.0">Ö</text><text fill="white" font-family="Arial" font-size="24" x="185.0" y="485.0">U</text><text fill="white" font-family="Arial" font-size="24" x="235.0" y="485.0">F</text><text fill="white" font-family="Arial" font-size="24" x="285.0" y="485.0">I</text><text fill="white" font-family="Arial" font-size="24" x="335.0" y="485.0">N</text><text fill="white" font-family="Arial" font-size="24" x="385.0" y="485.0">A</text><text fill="white" font-family="Arial" font-size="24" x="435.0" y="485.0">U</text><text fill="white" font-family="Arial" font-size="24" x="485.0" y="485.0">H</text><text fill="white" font-family="Arial" font-size="24" x="535.0" y="485.0">R</text><circle cx="15" cy="15" fill="white" r="5" /><circle cx="555" cy="15" fill="white" r="5" /><circle cx="15" cy="505" fill="white" r="5" /><circle cx="555" cy="505" fill="white" r="5" /></svg>